<svg xmlns="http://www.w3.org/2000/svg" viewBox="0 0 100 100" fill="none" stroke="#ffffff" stroke-width="2.5" stroke-linecap="round" stroke-linejoin="round">
  <!-- Center circle -->
  <circle cx="50" cy="50" r="3" fill="#ffffff"/>
  <!-- 6 primary spokes -->
  <line x1="50" y1="10" x2="50" y2="90" />
  <line x1="15.36" y1="30" x2="84.64" y2="70" />
  <line x1="15.36" y1="70" x2="84.64" y2="30" />
  
  <!-- Outer branches for vertical spoke (top & bottom) -->
  <path d="M50 22 L42 16 M50 22 L58 16" />
  <path d="M50 32 L44 28 M50 32 L56 28" />
  <path d="M50 78 L42 84 M50 78 L58 84" />
  <path d="M50 68 L44 72 M50 68 L56 72" />
  
  <!-- Outer branches for diagonal spoke 1 (top-left & bottom-right) -->
  <path d="M25.75 36 M25.75 36 L26.5 27 M25.75 36 L17.5 37" />
  <path d="M34.4 41 L37.2 32.8 M34.4 41 L27.2 40.5" />
  <path d="M74.25 64 L73.5 73 M74.25 64 L82.5 63" />
  <path d="M65.6 59 L62.8 67.2 M65.6 59 L72.8 59.5" />
  
  <!-- Outer branches for diagonal spoke 2 (bottom-left & top-right) -->
  <path d="M25.75 64 L17.5 63 M25.75 64 L26.5 73" />
  <path d="M34.4 59 L27.2 59.5 M34.4 59 L32.8 67.2" />
  <path d="M74.25 36 L82.5 37 M74.25 36 L73.5 27" />
  <path d="M65.6 41 L72.8 40.5 M65.6 41 L62.8 32.8" />
  
  <!-- Inner hexagon nodes connecting spoke points -->
  <polygon points="50,38 60.4,44 60.4,56 50,62 39.6,56 39.6,44" stroke-width="1.5" />
</svg>
